<mxfile host="app.diagrams.net" modified="2023-04-02T16:12:32.025Z" agent="Mozilla/5.0 (Windows NT 10.0; Win64; x64) AppleWebKit/537.36 (KHTML, like Gecko) Chrome/111.0.0.0 Safari/537.36" etag="MDQTVi0jBKT5fE4J66zC" version="21.1.2" type="github">
  <diagram name="Page-1" id="16e2658f-23c8-b752-8be9-c03fbebb8bbe">
    <mxGraphModel dx="5675" dy="2210" grid="1" gridSize="10" guides="1" tooltips="1" connect="1" arrows="1" fold="1" page="1" pageScale="1" pageWidth="1100" pageHeight="850" background="none" math="0" shadow="0">
      <root>
        <mxCell id="0" />
        <mxCell id="1" parent="0" />
        <mxCell id="6d250d948d6a1778-7" style="edgeStyle=orthogonalEdgeStyle;rounded=0;html=1;exitX=1;exitY=0.5;exitPerimeter=0;entryX=1;entryY=0.5;entryPerimeter=0;labelBackgroundColor=none;startArrow=none;startFill=0;startSize=5;endArrow=none;endFill=0;endSize=5;jettySize=auto;orthogonalLoop=1;strokeWidth=1;fontFamily=Verdana;fontSize=12" parent="1" source="6d250d948d6a1778-1" target="6d250d948d6a1778-2" edge="1">
          <mxGeometry relative="1" as="geometry">
            <Array as="points">
              <mxPoint x="890" y="-210" />
              <mxPoint x="1060" y="-210" />
            </Array>
          </mxGeometry>
        </mxCell>
        <mxCell id="6d250d948d6a1778-8" style="edgeStyle=orthogonalEdgeStyle;rounded=0;html=1;exitX=1;exitY=0.5;exitPerimeter=0;entryX=1;entryY=0.5;entryPerimeter=0;labelBackgroundColor=none;startArrow=none;startFill=0;startSize=5;endArrow=none;endFill=0;endSize=5;jettySize=auto;orthogonalLoop=1;strokeWidth=1;fontFamily=Verdana;fontSize=12" parent="1" source="6d250d948d6a1778-1" target="6d250d948d6a1778-3" edge="1">
          <mxGeometry relative="1" as="geometry">
            <Array as="points">
              <mxPoint x="890" y="-210" />
              <mxPoint x="1300" y="-210" />
            </Array>
          </mxGeometry>
        </mxCell>
        <mxCell id="6d250d948d6a1778-1" value="" style="verticalLabelPosition=bottom;shadow=0;dashed=0;align=center;fillColor=#000000;html=1;verticalAlign=top;strokeWidth=1;shape=mxgraph.electrical.miscellaneous.monocell_battery;rounded=1;comic=0;labelBackgroundColor=none;fontFamily=Verdana;fontSize=12;rotation=-90;" parent="1" vertex="1">
          <mxGeometry x="840" y="-40" width="100" height="60" as="geometry" />
        </mxCell>
        <mxCell id="6d250d948d6a1778-11" style="edgeStyle=orthogonalEdgeStyle;rounded=0;html=1;exitX=0;exitY=0.5;exitPerimeter=0;entryX=0;entryY=0.5;entryPerimeter=0;labelBackgroundColor=none;startArrow=none;startFill=0;startSize=5;endArrow=none;endFill=0;endSize=5;jettySize=auto;orthogonalLoop=1;strokeWidth=1;fontFamily=Verdana;fontSize=12" parent="1" source="6d250d948d6a1778-2" target="6d250d948d6a1778-6" edge="1">
          <mxGeometry relative="1" as="geometry" />
        </mxCell>
        <mxCell id="6d250d948d6a1778-12" style="edgeStyle=orthogonalEdgeStyle;rounded=0;html=1;exitX=0;exitY=0.5;exitPerimeter=0;entryX=1;entryY=0.5;entryPerimeter=0;labelBackgroundColor=none;startArrow=none;startFill=0;startSize=5;endArrow=none;endFill=0;endSize=5;jettySize=auto;orthogonalLoop=1;strokeWidth=1;fontFamily=Verdana;fontSize=12" parent="1" source="6d250d948d6a1778-2" target="6d250d948d6a1778-4" edge="1">
          <mxGeometry relative="1" as="geometry" />
        </mxCell>
        <mxCell id="6d250d948d6a1778-2" value="" style="verticalLabelPosition=bottom;shadow=0;dashed=0;align=center;html=1;verticalAlign=top;strokeWidth=1;shape=mxgraph.electrical.resistors.resistor_1;rounded=1;comic=0;labelBackgroundColor=none;fontFamily=Verdana;fontSize=12;rotation=-90;" parent="1" vertex="1">
          <mxGeometry x="1010" y="-130" width="100" height="20" as="geometry" />
        </mxCell>
        <mxCell id="6d250d948d6a1778-9" style="edgeStyle=orthogonalEdgeStyle;rounded=0;html=1;exitX=0;exitY=0.5;exitPerimeter=0;entryX=1;entryY=0.5;entryPerimeter=0;labelBackgroundColor=none;startArrow=none;startFill=0;startSize=5;endArrow=none;endFill=0;endSize=5;jettySize=auto;orthogonalLoop=1;strokeWidth=1;fontFamily=Verdana;fontSize=12" parent="1" source="6d250d948d6a1778-3" target="6d250d948d6a1778-5" edge="1">
          <mxGeometry relative="1" as="geometry" />
        </mxCell>
        <mxCell id="6d250d948d6a1778-3" value="" style="verticalLabelPosition=bottom;shadow=0;dashed=0;align=center;html=1;verticalAlign=top;strokeWidth=1;shape=mxgraph.electrical.resistors.resistor_1;rounded=1;comic=0;labelBackgroundColor=none;fontFamily=Verdana;fontSize=12;rotation=-90;" parent="1" vertex="1">
          <mxGeometry x="1250" y="-130" width="100" height="20" as="geometry" />
        </mxCell>
        <mxCell id="6d250d948d6a1778-13" style="edgeStyle=orthogonalEdgeStyle;rounded=0;html=1;exitX=0;exitY=0.5;exitPerimeter=0;entryX=0;entryY=0.5;entryPerimeter=0;labelBackgroundColor=none;startArrow=none;startFill=0;startSize=5;endArrow=none;endFill=0;endSize=5;jettySize=auto;orthogonalLoop=1;strokeWidth=1;fontFamily=Verdana;fontSize=12" parent="1" source="6d250d948d6a1778-4" target="6d250d948d6a1778-1" edge="1">
          <mxGeometry relative="1" as="geometry">
            <Array as="points">
              <mxPoint x="1060" y="140" />
              <mxPoint x="890" y="140" />
            </Array>
          </mxGeometry>
        </mxCell>
        <mxCell id="6d250d948d6a1778-4" value="" style="verticalLabelPosition=bottom;shadow=0;dashed=0;align=center;html=1;verticalAlign=top;strokeWidth=1;shape=mxgraph.electrical.resistors.resistor_1;rounded=1;comic=0;labelBackgroundColor=none;fontFamily=Verdana;fontSize=12;rotation=-90;" parent="1" vertex="1">
          <mxGeometry x="1010" y="40" width="100" height="20" as="geometry" />
        </mxCell>
        <mxCell id="6d250d948d6a1778-14" style="edgeStyle=orthogonalEdgeStyle;rounded=0;html=1;exitX=0;exitY=0.5;exitPerimeter=0;entryX=0;entryY=0.5;entryPerimeter=0;labelBackgroundColor=none;startArrow=none;startFill=0;startSize=5;endArrow=none;endFill=0;endSize=5;jettySize=auto;orthogonalLoop=1;strokeWidth=1;fontFamily=Verdana;fontSize=12" parent="1" source="6d250d948d6a1778-5" target="6d250d948d6a1778-1" edge="1">
          <mxGeometry relative="1" as="geometry">
            <Array as="points">
              <mxPoint x="1300" y="140" />
              <mxPoint x="890" y="140" />
            </Array>
          </mxGeometry>
        </mxCell>
        <mxCell id="6d250d948d6a1778-5" value="" style="verticalLabelPosition=bottom;shadow=0;dashed=0;align=center;html=1;verticalAlign=top;strokeWidth=1;shape=mxgraph.electrical.resistors.resistor_1;rounded=1;comic=0;labelBackgroundColor=none;fontFamily=Verdana;fontSize=12;rotation=-90;" parent="1" vertex="1">
          <mxGeometry x="1250" y="40" width="100" height="20" as="geometry" />
        </mxCell>
        <mxCell id="6d250d948d6a1778-10" style="edgeStyle=orthogonalEdgeStyle;rounded=0;html=1;exitX=1;exitY=0.5;exitPerimeter=0;labelBackgroundColor=none;startArrow=none;startFill=0;startSize=5;endArrow=none;endFill=0;endSize=5;jettySize=auto;orthogonalLoop=1;strokeWidth=1;fontFamily=Verdana;fontSize=12" parent="1" source="6d250d948d6a1778-6" edge="1">
          <mxGeometry relative="1" as="geometry">
            <mxPoint x="1300" as="targetPoint" />
          </mxGeometry>
        </mxCell>
        <mxCell id="6d250d948d6a1778-6" value="" style="verticalLabelPosition=bottom;shadow=0;dashed=0;align=center;fillColor=#ffffff;html=1;verticalAlign=top;strokeWidth=1;shape=mxgraph.electrical.resistors.resistor_1;rounded=1;comic=0;labelBackgroundColor=none;fontFamily=Verdana;fontSize=12;fontColor=#000000;rotation=0;" parent="1" vertex="1">
          <mxGeometry x="1130" y="-40" width="100" height="20" as="geometry" />
        </mxCell>
        <mxCell id="6d250d948d6a1778-16" value="R1" style="text;html=1;resizable=0;points=[];autosize=1;align=left;verticalAlign=top;spacingTop=-4;fontSize=16;fontFamily=Verdana" parent="1" vertex="1">
          <mxGeometry x="1022" y="-130" width="40" height="20" as="geometry" />
        </mxCell>
        <mxCell id="6d250d948d6a1778-17" value="R2" style="text;html=1;resizable=0;points=[];autosize=1;align=left;verticalAlign=top;spacingTop=-4;fontSize=16;fontFamily=Verdana" parent="1" vertex="1">
          <mxGeometry x="1022" y="40" width="40" height="20" as="geometry" />
        </mxCell>
        <mxCell id="6d250d948d6a1778-18" value="R5" style="text;html=1;resizable=0;points=[];autosize=1;align=left;verticalAlign=top;spacingTop=-4;fontSize=16;fontFamily=Verdana" parent="1" vertex="1">
          <mxGeometry x="1160" y="-70" width="40" height="20" as="geometry" />
        </mxCell>
        <mxCell id="6d250d948d6a1778-19" value="R3" style="text;html=1;resizable=0;points=[];autosize=1;align=left;verticalAlign=top;spacingTop=-4;fontSize=16;fontFamily=Verdana" parent="1" vertex="1">
          <mxGeometry x="1310" y="-130" width="40" height="20" as="geometry" />
        </mxCell>
        <mxCell id="6d250d948d6a1778-20" value="R4" style="text;html=1;resizable=0;points=[];autosize=1;align=left;verticalAlign=top;spacingTop=-4;fontSize=16;fontFamily=Verdana" parent="1" vertex="1">
          <mxGeometry x="1310" y="40" width="40" height="20" as="geometry" />
        </mxCell>
        <mxCell id="6d250d948d6a1778-21" value="I" style="endArrow=classic;html=1;labelBackgroundColor=none;strokeWidth=1;fontFamily=Verdana;fontSize=16" parent="1" edge="1">
          <mxGeometry x="-0.1429" y="20" width="50" height="50" relative="1" as="geometry">
            <mxPoint x="890" y="-230" as="sourcePoint" />
            <mxPoint x="960" y="-230" as="targetPoint" />
            <mxPoint as="offset" />
          </mxGeometry>
        </mxCell>
        <mxCell id="6d250d948d6a1778-22" value="U" style="endArrow=classic;html=1;labelBackgroundColor=none;strokeWidth=1;fontFamily=Verdana;fontSize=16" parent="1" edge="1">
          <mxGeometry x="-0.1429" y="20" width="50" height="50" relative="1" as="geometry">
            <mxPoint x="850" y="30" as="sourcePoint" />
            <mxPoint x="850" y="-50" as="targetPoint" />
            <mxPoint as="offset" />
          </mxGeometry>
        </mxCell>
        <mxCell id="6d250d948d6a1778-23" value="I5" style="endArrow=classic;html=1;labelBackgroundColor=none;strokeWidth=1;fontFamily=Verdana;fontSize=16" parent="1" edge="1">
          <mxGeometry x="-0.1429" y="20" width="50" height="50" relative="1" as="geometry">
            <mxPoint x="1070" y="-50" as="sourcePoint" />
            <mxPoint x="1140" y="-50" as="targetPoint" />
            <mxPoint as="offset" />
          </mxGeometry>
        </mxCell>
        <mxCell id="6d250d948d6a1778-24" value="Is1" style="verticalLabelPosition=middle;html=1;verticalAlign=middle;strokeWidth=1;shape=mxgraph.lean_mapping.physical_pull;rounded=1;shadow=0;comic=0;labelBackgroundColor=none;fillColor=#000000;fontFamily=Verdana;fontSize=16;align=center;flipH=1;labelPosition=center;" parent="1" vertex="1">
          <mxGeometry x="940" y="-60" width="80" height="80" as="geometry" />
        </mxCell>
        <mxCell id="6d250d948d6a1778-25" value="Is2" style="verticalLabelPosition=middle;html=1;verticalAlign=middle;strokeWidth=1;shape=mxgraph.lean_mapping.physical_pull;rounded=1;shadow=0;comic=0;labelBackgroundColor=none;fillColor=#000000;fontFamily=Verdana;fontSize=16;align=center;flipH=1;labelPosition=center;" parent="1" vertex="1">
          <mxGeometry x="1140" y="-180" width="80" height="80" as="geometry" />
        </mxCell>
        <mxCell id="6d250d948d6a1778-26" value="Is3" style="verticalLabelPosition=middle;html=1;verticalAlign=middle;strokeWidth=1;shape=mxgraph.lean_mapping.physical_pull;rounded=1;shadow=0;comic=0;labelBackgroundColor=none;fillColor=#000000;fontFamily=Verdana;fontSize=16;align=center;flipH=1;labelPosition=center;" parent="1" vertex="1">
          <mxGeometry x="1140" y="20" width="80" height="80" as="geometry" />
        </mxCell>
        <mxCell id="7wt9Ctz-3R3l7GTghrN8-1" value="" style="rounded=0;whiteSpace=wrap;html=1;fillColor=none;" vertex="1" parent="1">
          <mxGeometry x="-1843" y="10" width="320" height="420" as="geometry" />
        </mxCell>
        <mxCell id="7wt9Ctz-3R3l7GTghrN8-2" value="" style="rounded=0;whiteSpace=wrap;html=1;fillColor=none;" vertex="1" parent="1">
          <mxGeometry x="-1523" y="10" width="290" height="420" as="geometry" />
        </mxCell>
        <mxCell id="7wt9Ctz-3R3l7GTghrN8-3" value="" style="whiteSpace=wrap;html=1;aspect=fixed;fillColor=#000000;" vertex="1" parent="1">
          <mxGeometry x="-1533" y="420" width="20" height="20" as="geometry" />
        </mxCell>
        <mxCell id="7wt9Ctz-3R3l7GTghrN8-4" value="" style="whiteSpace=wrap;html=1;aspect=fixed;fillColor=#000000;" vertex="1" parent="1">
          <mxGeometry x="-1853" y="420" width="20" height="20" as="geometry" />
        </mxCell>
        <mxCell id="7wt9Ctz-3R3l7GTghrN8-6" value="" style="whiteSpace=wrap;html=1;aspect=fixed;fillColor=#000000;" vertex="1" parent="1">
          <mxGeometry x="-1853" width="20" height="20" as="geometry" />
        </mxCell>
        <mxCell id="7wt9Ctz-3R3l7GTghrN8-7" value="" style="whiteSpace=wrap;html=1;aspect=fixed;fillColor=#000000;" vertex="1" parent="1">
          <mxGeometry x="-1533" width="20" height="20" as="geometry" />
        </mxCell>
        <mxCell id="7wt9Ctz-3R3l7GTghrN8-8" value="" style="whiteSpace=wrap;html=1;aspect=fixed;fillColor=#000000;" vertex="1" parent="1">
          <mxGeometry x="-1243" width="20" height="20" as="geometry" />
        </mxCell>
        <mxCell id="7wt9Ctz-3R3l7GTghrN8-9" value="" style="whiteSpace=wrap;html=1;aspect=fixed;fillColor=#000000;" vertex="1" parent="1">
          <mxGeometry x="-1243" y="420" width="20" height="20" as="geometry" />
        </mxCell>
        <mxCell id="7wt9Ctz-3R3l7GTghrN8-10" value="" style="whiteSpace=wrap;html=1;aspect=fixed;fillColor=#000000;" vertex="1" parent="1">
          <mxGeometry x="-1243" y="211" width="20" height="20" as="geometry" />
        </mxCell>
        <mxCell id="7wt9Ctz-3R3l7GTghrN8-11" value="" style="whiteSpace=wrap;html=1;aspect=fixed;fillColor=#000000;" vertex="1" parent="1">
          <mxGeometry x="-1533" y="211" width="20" height="20" as="geometry" />
        </mxCell>
        <mxCell id="7wt9Ctz-3R3l7GTghrN8-12" value="" style="whiteSpace=wrap;html=1;aspect=fixed;fillColor=#000000;" vertex="1" parent="1">
          <mxGeometry x="-1853" y="211" width="20" height="20" as="geometry" />
        </mxCell>
        <mxCell id="7wt9Ctz-3R3l7GTghrN8-13" value="" style="verticalLabelPosition=bottom;html=1;verticalAlign=top;align=center;shape=mxgraph.floorplan.doorRight;aspect=fixed;" vertex="1" parent="1">
          <mxGeometry x="-1560.65" y="241" width="37.65" height="40" as="geometry" />
        </mxCell>
        <mxCell id="7wt9Ctz-3R3l7GTghrN8-17" value="14 ft" style="shape=dimension;whiteSpace=wrap;html=1;align=center;points=[];verticalAlign=bottom;spacingBottom=3;labelBackgroundColor=none;" vertex="1" parent="1">
          <mxGeometry x="-1843" y="440" width="320" height="20" as="geometry" />
        </mxCell>
        <mxCell id="7wt9Ctz-3R3l7GTghrN8-19" value="" style="rounded=0;whiteSpace=wrap;html=1;fillColor=none;dashed=1;" vertex="1" parent="1">
          <mxGeometry x="-1523" y="430" width="290" height="120" as="geometry" />
        </mxCell>
        <mxCell id="7wt9Ctz-3R3l7GTghrN8-20" value="24 ft" style="shape=dimension;whiteSpace=wrap;html=1;align=center;points=[];verticalAlign=bottom;spacingBottom=3;labelBackgroundColor=none;rotation=90;direction=east;flipH=0;flipV=0;" vertex="1" parent="1">
          <mxGeometry x="-2140" y="210" width="420" height="20" as="geometry" />
        </mxCell>
        <mxCell id="7wt9Ctz-3R3l7GTghrN8-21" value="" style="whiteSpace=wrap;html=1;aspect=fixed;fillColor=#000000;" vertex="1" parent="1">
          <mxGeometry x="-1243" y="540" width="20" height="20" as="geometry" />
        </mxCell>
        <mxCell id="7wt9Ctz-3R3l7GTghrN8-22" value="" style="whiteSpace=wrap;html=1;aspect=fixed;fillColor=#000000;" vertex="1" parent="1">
          <mxGeometry x="-1533" y="540" width="20" height="20" as="geometry" />
        </mxCell>
        <mxCell id="7wt9Ctz-3R3l7GTghrN8-25" value="" style="verticalLabelPosition=bottom;html=1;verticalAlign=top;align=center;shape=mxgraph.floorplan.doorRight;aspect=fixed;direction=north;" vertex="1" parent="1">
          <mxGeometry x="-1730.5" y="131" width="30.8" height="29" as="geometry" />
        </mxCell>
        <mxCell id="7wt9Ctz-3R3l7GTghrN8-28" value="" style="rounded=0;whiteSpace=wrap;html=1;fillColor=none;dashed=1;" vertex="1" parent="1">
          <mxGeometry x="-1893" y="10" width="150" height="120" as="geometry" />
        </mxCell>
        <mxCell id="7wt9Ctz-3R3l7GTghrN8-30" value="" style="verticalLabelPosition=bottom;html=1;verticalAlign=top;align=center;shape=mxgraph.floorplan.doorRight;aspect=fixed;direction=west;" vertex="1" parent="1">
          <mxGeometry x="-1742.6" y="85.10000000000002" width="29" height="30.8" as="geometry" />
        </mxCell>
        <mxCell id="7wt9Ctz-3R3l7GTghrN8-31" value="10 ft" style="shape=dimension;whiteSpace=wrap;html=1;align=center;points=[];verticalAlign=bottom;spacingBottom=3;labelBackgroundColor=none;" vertex="1" parent="1">
          <mxGeometry x="-1743.6" y="-20" width="220.6" height="20" as="geometry" />
        </mxCell>
        <mxCell id="7wt9Ctz-3R3l7GTghrN8-32" value="8 ft" style="shape=dimension;whiteSpace=wrap;html=1;align=center;points=[];verticalAlign=bottom;spacingBottom=3;labelBackgroundColor=none;rotation=90;direction=east;flipH=0;flipV=0;" vertex="1" parent="1">
          <mxGeometry x="-1969" y="60" width="120" height="20" as="geometry" />
        </mxCell>
        <mxCell id="7wt9Ctz-3R3l7GTghrN8-33" value="" style="whiteSpace=wrap;html=1;aspect=fixed;strokeColor=none;" vertex="1" parent="1">
          <mxGeometry x="-1873" y="20" width="110" height="110" as="geometry" />
        </mxCell>
        <mxCell id="7wt9Ctz-3R3l7GTghrN8-34" value="16 ft" style="shape=dimension;whiteSpace=wrap;html=1;align=center;points=[];verticalAlign=bottom;spacingBottom=3;labelBackgroundColor=none;" vertex="1" parent="1">
          <mxGeometry x="-1893" y="-50" width="370" height="19.49" as="geometry" />
        </mxCell>
        <mxCell id="7wt9Ctz-3R3l7GTghrN8-35" value="" style="rounded=0;whiteSpace=wrap;html=1;fillColor=none;dashed=1;" vertex="1" parent="1">
          <mxGeometry x="-1743.6" y="10" width="220.6" height="120" as="geometry" />
        </mxCell>
        <mxCell id="7wt9Ctz-3R3l7GTghrN8-36" value="16 ft" style="shape=dimension;whiteSpace=wrap;html=1;align=center;points=[];verticalAlign=bottom;spacingBottom=3;labelBackgroundColor=none;rotation=90;direction=east;flipH=0;flipV=0;" vertex="1" parent="1">
          <mxGeometry x="-2059" y="270" width="300" height="20" as="geometry" />
        </mxCell>
        <mxCell id="7wt9Ctz-3R3l7GTghrN8-37" value="12 ft" style="shape=dimension;whiteSpace=wrap;html=1;align=center;points=[];verticalAlign=bottom;spacingBottom=3;labelBackgroundColor=none;" vertex="1" parent="1">
          <mxGeometry x="-1523" y="440" width="290" height="20" as="geometry" />
        </mxCell>
        <mxCell id="7wt9Ctz-3R3l7GTghrN8-39" value="" style="verticalLabelPosition=bottom;html=1;verticalAlign=top;align=center;shape=mxgraph.floorplan.doorDouble;aspect=fixed;direction=north;" vertex="1" parent="1">
          <mxGeometry x="-1233" y="250" width="37.23" height="70.07" as="geometry" />
        </mxCell>
        <mxCell id="7wt9Ctz-3R3l7GTghrN8-40" value="" style="rounded=0;whiteSpace=wrap;html=1;fillColor=none;dashed=1;" vertex="1" parent="1">
          <mxGeometry x="-1523" y="330" width="290" height="100" as="geometry" />
        </mxCell>
        <mxCell id="7wt9Ctz-3R3l7GTghrN8-43" value="" style="rounded=0;whiteSpace=wrap;html=1;fillColor=none;movable=0;resizable=0;rotatable=0;deletable=0;editable=0;locked=1;connectable=0;" vertex="1" parent="1">
          <mxGeometry x="-960" y="80" width="560" height="960" as="geometry" />
        </mxCell>
        <mxCell id="7wt9Ctz-3R3l7GTghrN8-44" value="" style="rounded=0;whiteSpace=wrap;html=1;fillColor=none;movable=0;resizable=0;rotatable=0;deletable=0;editable=0;locked=1;connectable=0;" vertex="1" parent="1">
          <mxGeometry x="-400" y="80" width="480" height="960" as="geometry" />
        </mxCell>
        <mxCell id="7wt9Ctz-3R3l7GTghrN8-45" value="" style="whiteSpace=wrap;html=1;aspect=fixed;fillColor=#000000;" vertex="1" parent="1">
          <mxGeometry x="-410" y="70" width="20" height="20" as="geometry" />
        </mxCell>
        <mxCell id="7wt9Ctz-3R3l7GTghrN8-46" value="" style="whiteSpace=wrap;html=1;aspect=fixed;fillColor=#000000;" vertex="1" parent="1">
          <mxGeometry x="-410" y="550" width="20" height="20" as="geometry" />
        </mxCell>
        <mxCell id="7wt9Ctz-3R3l7GTghrN8-47" value="" style="whiteSpace=wrap;html=1;aspect=fixed;fillColor=#000000;" vertex="1" parent="1">
          <mxGeometry x="-410" y="1030" width="20" height="20" as="geometry" />
        </mxCell>
        <mxCell id="7wt9Ctz-3R3l7GTghrN8-48" value="" style="whiteSpace=wrap;html=1;aspect=fixed;fillColor=#000000;" vertex="1" parent="1">
          <mxGeometry x="70" y="70" width="20" height="20" as="geometry" />
        </mxCell>
        <mxCell id="7wt9Ctz-3R3l7GTghrN8-49" value="" style="whiteSpace=wrap;html=1;aspect=fixed;fillColor=#000000;" vertex="1" parent="1">
          <mxGeometry x="70" y="550" width="20" height="20" as="geometry" />
        </mxCell>
        <mxCell id="7wt9Ctz-3R3l7GTghrN8-50" value="" style="whiteSpace=wrap;html=1;aspect=fixed;fillColor=#000000;" vertex="1" parent="1">
          <mxGeometry x="70" y="1030" width="20" height="20" as="geometry" />
        </mxCell>
        <mxCell id="7wt9Ctz-3R3l7GTghrN8-51" value="" style="whiteSpace=wrap;html=1;aspect=fixed;fillColor=#000000;" vertex="1" parent="1">
          <mxGeometry x="-970" y="70" width="20" height="20" as="geometry" />
        </mxCell>
        <mxCell id="7wt9Ctz-3R3l7GTghrN8-52" value="" style="whiteSpace=wrap;html=1;aspect=fixed;fillColor=#000000;" vertex="1" parent="1">
          <mxGeometry x="-970" y="550" width="20" height="20" as="geometry" />
        </mxCell>
        <mxCell id="7wt9Ctz-3R3l7GTghrN8-53" value="" style="whiteSpace=wrap;html=1;aspect=fixed;fillColor=#000000;" vertex="1" parent="1">
          <mxGeometry x="-970" y="1030" width="20" height="20" as="geometry" />
        </mxCell>
        <mxCell id="7wt9Ctz-3R3l7GTghrN8-54" value="" style="verticalLabelPosition=bottom;html=1;verticalAlign=top;align=center;shape=mxgraph.floorplan.doorRight;aspect=fixed;" vertex="1" parent="1">
          <mxGeometry x="-475.65" y="440" width="75.3" height="80" as="geometry" />
        </mxCell>
        <mxCell id="7wt9Ctz-3R3l7GTghrN8-55" value="" style="verticalLabelPosition=bottom;html=1;verticalAlign=top;align=center;shape=mxgraph.floorplan.doorDouble;aspect=fixed;direction=north;" vertex="1" parent="1">
          <mxGeometry x="80" y="600" width="63.76" height="120" as="geometry" />
        </mxCell>
        <mxCell id="7wt9Ctz-3R3l7GTghrN8-65" value="" style="endArrow=none;html=1;rounded=0;entryX=0;entryY=0.5;entryDx=0;entryDy=0;exitX=1;exitY=0.5;exitDx=0;exitDy=0;" edge="1" parent="1" source="7wt9Ctz-3R3l7GTghrN8-57" target="7wt9Ctz-3R3l7GTghrN8-51">
          <mxGeometry width="50" height="50" relative="1" as="geometry">
            <mxPoint x="-910" y="430" as="sourcePoint" />
            <mxPoint x="-860" y="380" as="targetPoint" />
          </mxGeometry>
        </mxCell>
        <mxCell id="7wt9Ctz-3R3l7GTghrN8-66" value="" style="endArrow=none;html=1;rounded=0;entryX=0;entryY=0.333;entryDx=0;entryDy=0;exitX=1;exitY=0.5;exitDx=0;exitDy=0;entryPerimeter=0;" edge="1" parent="1" target="7wt9Ctz-3R3l7GTghrN8-43">
          <mxGeometry width="50" height="50" relative="1" as="geometry">
            <mxPoint x="-1030" y="399.72" as="sourcePoint" />
            <mxPoint x="-970" y="399.72" as="targetPoint" />
          </mxGeometry>
        </mxCell>
        <mxCell id="7wt9Ctz-3R3l7GTghrN8-67" value="" style="endArrow=none;html=1;rounded=0;entryX=0.5;entryY=1;entryDx=0;entryDy=0;exitX=0.5;exitY=0;exitDx=0;exitDy=0;" edge="1" parent="1" source="7wt9Ctz-3R3l7GTghrN8-59" target="7wt9Ctz-3R3l7GTghrN8-57">
          <mxGeometry width="50" height="50" relative="1" as="geometry">
            <mxPoint x="-1020" y="409.72" as="sourcePoint" />
            <mxPoint x="-950" y="410" as="targetPoint" />
          </mxGeometry>
        </mxCell>
        <mxCell id="7wt9Ctz-3R3l7GTghrN8-68" value="" style="endArrow=none;html=1;rounded=0;entryX=-0.001;entryY=0.334;entryDx=0;entryDy=0;entryPerimeter=0;dashed=1;" edge="1" parent="1" source="7wt9Ctz-3R3l7GTghrN8-91" target="7wt9Ctz-3R3l7GTghrN8-44">
          <mxGeometry width="50" height="50" relative="1" as="geometry">
            <mxPoint x="-960" y="400" as="sourcePoint" />
            <mxPoint x="-890" y="399.8" as="targetPoint" />
          </mxGeometry>
        </mxCell>
        <mxCell id="7wt9Ctz-3R3l7GTghrN8-69" value="" style="endArrow=none;html=1;rounded=0;entryX=0.5;entryY=1;entryDx=0;entryDy=0;dashed=1;" edge="1" parent="1" source="7wt9Ctz-3R3l7GTghrN8-98">
          <mxGeometry width="50" height="50" relative="1" as="geometry">
            <mxPoint x="-800" y="400" as="sourcePoint" />
            <mxPoint x="-800" y="80" as="targetPoint" />
          </mxGeometry>
        </mxCell>
        <mxCell id="7wt9Ctz-3R3l7GTghrN8-70" value="" style="verticalLabelPosition=bottom;html=1;verticalAlign=top;align=center;shape=mxgraph.floorplan.doorRight;aspect=fixed;direction=north;" vertex="1" parent="1">
          <mxGeometry x="-760" y="401" width="62.66" height="59" as="geometry" />
        </mxCell>
        <mxCell id="7wt9Ctz-3R3l7GTghrN8-71" value="" style="verticalLabelPosition=bottom;html=1;verticalAlign=top;align=center;shape=mxgraph.floorplan.doorRight;aspect=fixed;direction=north;" vertex="1" parent="1">
          <mxGeometry x="-800" y="312" width="62.66" height="59" as="geometry" />
        </mxCell>
        <mxCell id="7wt9Ctz-3R3l7GTghrN8-72" value="" style="rounded=0;whiteSpace=wrap;html=1;" vertex="1" parent="1">
          <mxGeometry x="-1040" y="80" width="240" height="320" as="geometry" />
        </mxCell>
        <mxCell id="7wt9Ctz-3R3l7GTghrN8-57" value="" style="whiteSpace=wrap;html=1;aspect=fixed;fillColor=#000000;fillStyle=dots;" vertex="1" parent="1">
          <mxGeometry x="-1050" y="69.99999999999997" width="20" height="20" as="geometry" />
        </mxCell>
        <mxCell id="7wt9Ctz-3R3l7GTghrN8-59" value="" style="whiteSpace=wrap;html=1;aspect=fixed;fillColor=#000000;fillStyle=dots;" vertex="1" parent="1">
          <mxGeometry x="-1050" y="389.99999999999994" width="20" height="20" as="geometry" />
        </mxCell>
        <mxCell id="7wt9Ctz-3R3l7GTghrN8-73" value="" style="verticalLabelPosition=bottom;html=1;verticalAlign=top;align=center;shape=mxgraph.floorplan.toilet;direction=south;" vertex="1" parent="1">
          <mxGeometry x="-870" y="250" width="67" height="50" as="geometry" />
        </mxCell>
        <mxCell id="7wt9Ctz-3R3l7GTghrN8-74" value="" style="verticalLabelPosition=bottom;html=1;verticalAlign=top;align=center;shape=mxgraph.floorplan.chair;shadow=0;" vertex="1" parent="1">
          <mxGeometry x="-290" y="205" width="40" height="52" as="geometry" />
        </mxCell>
        <mxCell id="7wt9Ctz-3R3l7GTghrN8-75" value="" style="verticalLabelPosition=bottom;html=1;verticalAlign=top;align=center;shape=mxgraph.floorplan.chair;shadow=0;direction=west;" vertex="1" parent="1">
          <mxGeometry x="-290" y="293" width="40" height="52" as="geometry" />
        </mxCell>
        <mxCell id="7wt9Ctz-3R3l7GTghrN8-76" value="" style="verticalLabelPosition=bottom;html=1;verticalAlign=top;align=center;shape=mxgraph.floorplan.chair;shadow=0;direction=north;" vertex="1" parent="1">
          <mxGeometry x="-340" y="255" width="52" height="40" as="geometry" />
        </mxCell>
        <mxCell id="7wt9Ctz-3R3l7GTghrN8-77" value="" style="verticalLabelPosition=bottom;html=1;verticalAlign=top;align=center;shape=mxgraph.floorplan.chair;shadow=0;direction=south" vertex="1" parent="1">
          <mxGeometry x="-192" y="255" width="52" height="40" as="geometry" />
        </mxCell>
        <mxCell id="7wt9Ctz-3R3l7GTghrN8-78" value="" style="verticalLabelPosition=bottom;html=1;verticalAlign=top;align=center;shape=mxgraph.floorplan.chair;shadow=0;" vertex="1" parent="1">
          <mxGeometry x="-230" y="205" width="40" height="52" as="geometry" />
        </mxCell>
        <mxCell id="7wt9Ctz-3R3l7GTghrN8-79" value="" style="verticalLabelPosition=bottom;html=1;verticalAlign=top;align=center;shape=mxgraph.floorplan.chair;shadow=0;direction=west;" vertex="1" parent="1">
          <mxGeometry x="-230" y="293" width="40" height="52" as="geometry" />
        </mxCell>
        <mxCell id="7wt9Ctz-3R3l7GTghrN8-80" value="" style="shape=rect;shadow=0;html=1;" vertex="1" parent="1">
          <mxGeometry x="-240" y="160" width="260" height="100" as="geometry" />
        </mxCell>
        <mxCell id="7wt9Ctz-3R3l7GTghrN8-81" value="" style="verticalLabelPosition=bottom;html=1;verticalAlign=top;align=center;shape=mxgraph.floorplan.bathtub2;" vertex="1" parent="1">
          <mxGeometry x="-1030" y="100" width="220" height="100" as="geometry" />
        </mxCell>
        <mxCell id="7wt9Ctz-3R3l7GTghrN8-82" value="" style="verticalLabelPosition=bottom;html=1;verticalAlign=top;align=center;shape=mxgraph.floorplan.bed_double;direction=south;" vertex="1" parent="1">
          <mxGeometry x="-680" y="749" width="260" height="200" as="geometry" />
        </mxCell>
        <mxCell id="7wt9Ctz-3R3l7GTghrN8-84" value="" style="verticalLabelPosition=bottom;html=1;verticalAlign=top;align=center;shape=mxgraph.floorplan.sink_double2;direction=north;" vertex="1" parent="1">
          <mxGeometry x="-1030" y="265" width="50" height="110" as="geometry" />
        </mxCell>
        <mxCell id="7wt9Ctz-3R3l7GTghrN8-85" value="" style="verticalLabelPosition=bottom;html=1;verticalAlign=top;align=center;shape=mxgraph.floorplan.wall;fillColor=strokeColor;direction=south;" vertex="1" parent="1">
          <mxGeometry x="-965" y="401" width="10" height="149" as="geometry" />
        </mxCell>
        <mxCell id="7wt9Ctz-3R3l7GTghrN8-86" value="" style="verticalLabelPosition=bottom;html=1;verticalAlign=top;align=center;shape=mxgraph.floorplan.wall;fillColor=strokeColor;direction=south;" vertex="1" parent="1">
          <mxGeometry x="-965" y="571" width="10" height="459" as="geometry" />
        </mxCell>
        <mxCell id="7wt9Ctz-3R3l7GTghrN8-87" value="" style="verticalLabelPosition=bottom;html=1;verticalAlign=top;align=center;shape=mxgraph.floorplan.wall;fillColor=strokeColor;" vertex="1" parent="1">
          <mxGeometry x="-950" y="1035" width="540" height="10" as="geometry" />
        </mxCell>
        <mxCell id="7wt9Ctz-3R3l7GTghrN8-88" value="" style="verticalLabelPosition=bottom;html=1;verticalAlign=top;align=center;shape=mxgraph.floorplan.wall;fillColor=strokeColor;direction=south;" vertex="1" parent="1">
          <mxGeometry x="-405" y="570" width="10" height="459" as="geometry" />
        </mxCell>
        <mxCell id="7wt9Ctz-3R3l7GTghrN8-89" value="" style="verticalLabelPosition=bottom;html=1;verticalAlign=top;align=center;shape=mxgraph.floorplan.wall;fillColor=strokeColor;direction=south;" vertex="1" parent="1">
          <mxGeometry x="-405" y="91" width="10" height="349" as="geometry" />
        </mxCell>
        <mxCell id="7wt9Ctz-3R3l7GTghrN8-90" value="" style="verticalLabelPosition=bottom;html=1;verticalAlign=top;align=center;shape=mxgraph.floorplan.wall;fillColor=strokeColor;direction=south;" vertex="1" parent="1">
          <mxGeometry x="-405" y="520" width="10" height="30" as="geometry" />
        </mxCell>
        <mxCell id="7wt9Ctz-3R3l7GTghrN8-92" value="" style="endArrow=none;html=1;rounded=0;entryX=-0.001;entryY=0.334;entryDx=0;entryDy=0;entryPerimeter=0;dashed=1;" edge="1" parent="1" source="7wt9Ctz-3R3l7GTghrN8-94" target="7wt9Ctz-3R3l7GTghrN8-91">
          <mxGeometry width="50" height="50" relative="1" as="geometry">
            <mxPoint x="-960" y="400" as="sourcePoint" />
            <mxPoint x="-400" y="401" as="targetPoint" />
          </mxGeometry>
        </mxCell>
        <mxCell id="7wt9Ctz-3R3l7GTghrN8-91" value="" style="verticalLabelPosition=bottom;html=1;verticalAlign=top;align=center;shape=mxgraph.floorplan.wall;fillColor=strokeColor;" vertex="1" parent="1">
          <mxGeometry x="-697.34" y="395" width="297.34" height="10" as="geometry" />
        </mxCell>
        <mxCell id="7wt9Ctz-3R3l7GTghrN8-93" value="" style="verticalLabelPosition=bottom;html=1;verticalAlign=top;align=center;shape=mxgraph.floorplan.wall;fillColor=strokeColor;" vertex="1" parent="1">
          <mxGeometry x="-1040" y="75" width="630" height="10" as="geometry" />
        </mxCell>
        <mxCell id="7wt9Ctz-3R3l7GTghrN8-95" value="" style="endArrow=none;html=1;rounded=0;entryX=-0.001;entryY=0.334;entryDx=0;entryDy=0;entryPerimeter=0;dashed=1;" edge="1" parent="1" target="7wt9Ctz-3R3l7GTghrN8-94">
          <mxGeometry width="50" height="50" relative="1" as="geometry">
            <mxPoint x="-960" y="400" as="sourcePoint" />
            <mxPoint x="-698" y="398" as="targetPoint" />
          </mxGeometry>
        </mxCell>
        <mxCell id="7wt9Ctz-3R3l7GTghrN8-94" value="" style="verticalLabelPosition=bottom;html=1;verticalAlign=top;align=center;shape=mxgraph.floorplan.wall;fillColor=strokeColor;" vertex="1" parent="1">
          <mxGeometry x="-1040" y="395" width="280" height="10" as="geometry" />
        </mxCell>
        <mxCell id="7wt9Ctz-3R3l7GTghrN8-96" value="" style="verticalLabelPosition=bottom;html=1;verticalAlign=top;align=center;shape=mxgraph.floorplan.wall;fillColor=strokeColor;direction=south;" vertex="1" parent="1">
          <mxGeometry x="-1045" y="80" width="10" height="320" as="geometry" />
        </mxCell>
        <mxCell id="7wt9Ctz-3R3l7GTghrN8-97" value="" style="verticalLabelPosition=bottom;html=1;verticalAlign=top;align=center;shape=mxgraph.floorplan.wall;fillColor=strokeColor;direction=south;" vertex="1" parent="1">
          <mxGeometry x="-806" y="83" width="10" height="229" as="geometry" />
        </mxCell>
        <mxCell id="7wt9Ctz-3R3l7GTghrN8-99" value="" style="endArrow=none;html=1;rounded=0;entryX=0.5;entryY=1;entryDx=0;entryDy=0;dashed=1;" edge="1" parent="1" target="7wt9Ctz-3R3l7GTghrN8-98">
          <mxGeometry width="50" height="50" relative="1" as="geometry">
            <mxPoint x="-800" y="400" as="sourcePoint" />
            <mxPoint x="-800" y="80" as="targetPoint" />
          </mxGeometry>
        </mxCell>
        <mxCell id="7wt9Ctz-3R3l7GTghrN8-98" value="" style="verticalLabelPosition=bottom;html=1;verticalAlign=top;align=center;shape=mxgraph.floorplan.wall;fillColor=strokeColor;direction=south;" vertex="1" parent="1">
          <mxGeometry x="-806" y="371" width="10" height="30" as="geometry" />
        </mxCell>
      </root>
    </mxGraphModel>
  </diagram>
</mxfile>
